<svg width="62" height="62" viewBox="0 0 62 62" fill="none" xmlns="http://www.w3.org/2000/svg">
<g clip-path="url(#clip0_1288_16)">
<path d="M46.5 24.2188C49.1708 24.2188 51.3438 22.0458 51.3438 19.375C51.3438 16.7042 49.1708 14.5312 46.5 14.5312C43.8292 14.5312 41.6562 16.7042 41.6562 19.375C41.6562 22.0458 43.8292 24.2188 46.5 24.2188ZM46.5 16.4688C48.1023 16.4688 49.4062 17.7727 49.4062 19.375C49.4062 20.9773 48.1023 22.2812 46.5 22.2812C44.8977 22.2812 43.5938 20.9773 43.5938 19.375C43.5938 17.7727 44.8977 16.4688 46.5 16.4688Z" fill="#203468"/>
<path d="M37.3434 16.2266L35.8438 16.7497V22.0003L37.3434 22.5234C37.4732 22.9032 37.6253 23.2703 37.7967 23.6259L37.108 25.0548L40.8212 28.767L42.2491 28.0773C42.6037 28.2507 42.9718 28.4018 43.3496 28.5316L43.8747 30.0312H49.1253L49.6494 28.5307C50.0282 28.4008 50.3963 28.2497 50.7499 28.0763L52.1778 28.7661L55.8911 25.0538L55.2023 23.6249C55.3747 23.2703 55.5258 22.9022 55.6557 22.5225L57.1562 22.0003V16.7497L55.6566 16.2266C55.5268 15.8468 55.3747 15.4797 55.2033 15.1241L55.892 13.6952L52.1788 9.98297L50.7499 10.6717C50.3963 10.4993 50.0282 10.3482 49.6494 10.2184L49.1253 8.71875H43.8747L43.3506 10.2193C42.9708 10.3492 42.6037 10.5003 42.2491 10.6727L40.8212 9.98394L37.108 13.6962L37.7967 15.1251C37.6253 15.4797 37.4732 15.8468 37.3434 16.2266ZM39.0542 17.2467C39.2189 16.6683 39.4456 16.119 39.7275 15.6133L39.9726 15.1735L39.4514 14.0934L41.2193 12.3264L42.2985 12.8466L42.7383 12.6025C43.2421 12.3215 43.7914 12.0958 44.3717 11.9302L44.8551 11.7916L45.2503 10.6562H47.7497L48.1459 11.7916L48.6293 11.9302C49.2086 12.0948 49.7579 12.3215 50.2636 12.6025L50.7024 12.8466L51.7816 12.3264L53.5496 14.0934L53.0284 15.1735L53.2735 15.6133C53.5554 16.1181 53.7821 16.6683 53.9468 17.2467L54.0853 17.7301L55.2188 18.1253V20.6247L54.0843 21.0199L53.9458 21.5033C53.7811 22.0817 53.5544 22.631 53.2725 23.1367L53.0274 23.5765L53.5486 24.6566L51.7816 26.4236L50.7024 25.9024L50.2626 26.1466C49.7569 26.4294 49.2067 26.6552 48.6293 26.8198L48.1459 26.9584L47.7497 28.0938H45.2503L44.8541 26.9584L44.3707 26.8198C43.7933 26.6552 43.2431 26.4294 42.7374 26.1466L42.2976 25.9024L41.2184 26.4236L39.4514 24.6566L39.9726 23.5765L39.7275 23.1367C39.4456 22.6319 39.2189 22.0817 39.0542 21.5033L38.9157 21.0199L37.7812 20.6247V18.1253L38.9157 17.7301L39.0542 17.2467Z" fill="#203468"/>
<path d="M21.7097 24.8703L32.0143 18.4301C32.4696 26.6983 37.5449 34.0279 45.2222 37.3178L46.5 37.8661L47.7778 37.3187C55.8291 33.8681 61.0312 25.9786 61.0312 17.2191V5.81209H59.8784C55.2255 5.81209 50.6957 4.172 47.12 1.19212L46.5 0.675781L45.88 1.19212C42.3043 4.172 37.7745 5.81209 33.1216 5.81209H31.9688V10.7275C31.5977 10.8031 31.2403 10.9348 30.9157 11.1354L21.203 17.1126C20.0434 17.8256 18.7356 18.2363 17.3881 18.3535C18.6145 17.1261 19.375 15.4308 19.375 13.5621C19.375 9.82369 16.3331 6.78084 12.5938 6.78084C8.85438 6.78084 5.8125 9.82369 5.8125 13.5621C5.8125 15.7282 6.83744 17.656 8.42425 18.8989C4.1075 20.261 0.96875 24.3017 0.96875 29.0621V36.8121C0.96875 39.4829 3.14166 41.6558 5.8125 41.6558V57.1558C5.8125 59.2929 7.55044 61.0308 9.6875 61.0308C11.8246 61.0308 13.5625 59.2929 13.5625 57.1558V40.6871H19.375V49.4058C19.375 50.115 19.5804 50.7708 19.9136 51.3433H17.4375V59.0933H15.5V61.0308H58.125V59.0933H56.1875V39.7183H44.5625V59.0933H42.625V45.5308H31V59.0933H29.0625V51.3433H26.5864C26.9196 50.7708 27.125 50.115 27.125 49.4058V37.7808C27.125 35.11 24.9521 32.9371 22.2812 32.9371H20.3428L20.3438 27.3348C20.3438 26.3263 20.8543 25.4051 21.7097 24.8703ZM46.5 3.17903C50.1125 5.97194 54.5309 7.57038 59.0938 7.73506V17.2191C59.0938 25.2016 54.3527 32.3927 47.0144 35.5372L46.5 35.7581L45.9856 35.5372C38.656 32.3965 33.9188 25.2181 33.9072 17.2462L34.3238 16.9866C35.2751 16.3918 35.8438 15.3669 35.8438 14.2441V13.8895C35.8438 12.5682 35.0445 11.4328 33.9062 10.9319V7.73506C38.4691 7.57038 42.8875 5.97194 46.5 3.17903ZM11.625 20.3433H15.1338L12.5938 23.609L10.1583 20.477C10.6359 20.3957 11.1242 20.3433 11.625 20.3433ZM7.75 13.5621C7.75 10.8913 9.92291 8.71834 12.5938 8.71834C15.2646 8.71834 17.4375 10.8913 17.4375 13.5621C17.4375 16.2329 15.2646 18.4058 12.5938 18.4058C9.92291 18.4058 7.75 16.2329 7.75 13.5621ZM46.5 41.6558H54.25V59.0933H46.5V41.6558ZM32.9375 47.4683H40.6875V59.0933H32.9375V47.4683ZM27.125 59.0933H19.375V53.2808H27.125V59.0933ZM22.2812 34.8746C23.8836 34.8746 25.1875 36.1785 25.1875 37.7808V49.4058C25.1875 50.4744 24.3185 51.3433 23.25 51.3433C22.1815 51.3433 21.3125 50.4744 21.3125 49.4058V40.6871C21.3125 39.6186 20.4435 38.7496 19.375 38.7496H13.5625V34.8746H11.625V57.1558C11.625 58.2244 10.756 59.0933 9.6875 59.0933C8.61897 59.0933 7.75 58.2244 7.75 57.1558V25.1871H5.8125V39.7183C4.21019 39.7183 2.90625 38.4144 2.90625 36.8121V29.0621C2.90625 25.4855 5.07237 22.4078 8.16075 21.0651L12.5938 26.7652L17.6429 20.2736C19.2597 20.1196 20.8262 19.6187 22.2173 18.7623L31.93 12.7852C32.1344 12.6592 32.3698 12.5933 32.6101 12.5933C33.324 12.5933 33.9062 13.1756 33.9062 13.8895V14.2441C33.9062 14.6946 33.6786 15.1053 33.2969 15.3436L20.6828 23.2283C19.2568 24.1176 18.4062 25.6531 18.4062 27.3348L18.4053 34.8746H22.2812Z" fill="#203468"/>
<path d="M50.375 43.5938H52.3125V45.5312H50.375V43.5938Z" fill="#203468"/>
<path d="M50.375 47.4688H52.3125V49.4062H50.375V47.4688Z" fill="#203468"/>
<path d="M50.375 51.3438H52.3125V53.2812H50.375V51.3438Z" fill="#203468"/>
<path d="M36.8125 49.4062H38.75V51.3438H36.8125V49.4062Z" fill="#203468"/>
<path d="M36.8125 53.2812H38.75V55.2188H36.8125V53.2812Z" fill="#203468"/>
<path d="M23.25 55.2188H25.1875V57.1562H23.25V55.2188Z" fill="#203468"/>
</g>
<defs>
<clipPath id="clip0_1288_16">
<rect width="62" height="62" fill="white"/>
</clipPath>
</defs>
</svg>
