<svg width="60" height="60" viewBox="0 0 60 60" fill="none" xmlns="http://www.w3.org/2000/svg">
<g clip-path="url(#clip0_442_509)">
<path d="M50.9046 25.7304V25.7318C50.9155 32.8217 47.9966 39.2321 43.29 43.8173C42.9622 43.9466 42.6549 44.1437 42.3899 44.4088C42.1908 44.6079 42.03 44.8308 41.9075 45.0684C37.5382 48.7391 31.9039 50.9536 25.7509 50.9631C16.2836 50.9777 7.60743 45.6833 3.29072 37.2574L3.28989 37.2558C2.87272 36.4486 3.1888 35.4563 3.99593 35.0391C4.80291 34.622 5.79501 34.9379 6.21233 35.7446C11.7458 46.5059 24.9553 50.744 35.7167 45.2108C46.4783 39.6774 50.7166 26.4677 45.1833 15.7061C39.6499 4.94454 26.4403 0.706233 15.6787 6.23958L15.9073 6.68425L15.6787 6.23958C10.9485 8.67178 7.26436 12.7416 5.31378 17.69L5.30967 17.7004L5.30603 17.711C5.01178 18.5682 4.07835 19.0246 3.22108 18.7303C2.36386 18.436 1.90753 17.5026 2.2018 16.6453L1.72889 16.483L2.2018 16.6453C2.21713 16.6007 2.23451 16.5564 2.25391 16.5126L2.25817 16.5029L2.26202 16.4931C7.34658 3.54191 21.9675 -2.83522 34.9185 2.24934C44.5726 6.03951 50.9174 15.3589 50.9046 25.7304ZM42.7247 45.6866C43.1004 45.3654 43.4668 45.0338 43.8236 44.6921C44.3773 44.5395 44.995 44.6808 45.4302 45.1159L45.4442 45.1299L45.4593 45.1428L59.0083 56.694C59.6435 57.3377 59.6383 58.3745 58.9958 59.0118L58.9944 59.0133L58.9834 59.0242C58.9831 59.0245 58.9828 59.0248 58.9825 59.0251C58.339 59.6624 57.3006 59.6579 56.6626 59.0147L56.6479 58.9999L56.632 58.9863L43.0839 47.4359C42.6183 46.9598 42.4985 46.2717 42.7247 45.6866ZM23.571 24.0899H24.071V23.5899V12.8847C24.071 11.9783 24.8057 11.2437 25.7121 11.2437C26.6185 11.2437 27.3531 11.9783 27.3531 12.8847V23.5899V24.0899H27.8531H38.5584C39.4647 24.0899 40.1994 24.8246 40.1994 25.731C40.1994 26.6374 39.4647 27.372 38.5584 27.372H27.8531H27.3531V27.872V38.5773C27.3531 39.4836 26.6185 40.2183 25.7121 40.2183C24.8057 40.2183 24.071 39.4836 24.071 38.5773V27.872V27.372H23.571H12.8658C11.9594 27.372 11.2248 26.6374 11.2248 25.731C11.2248 24.8246 11.9594 24.0899 12.8658 24.0899H23.571ZM3.80162 23.5899C3.80162 24.4963 3.06696 25.231 2.16058 25.231C1.25431 25.231 0.519531 24.4963 0.519531 23.5899C0.519531 22.6836 1.25419 21.9489 2.16058 21.9489C3.06696 21.9489 3.80162 22.6836 3.80162 23.5899ZM2.16058 28.372C3.06696 28.372 3.80162 29.1067 3.80162 30.0131C3.80162 30.9194 3.06694 31.6541 2.16058 31.6541C1.25419 31.6541 0.519531 30.9195 0.519531 30.0131C0.519531 29.1067 1.25419 28.372 2.16058 28.372Z" fill="#203468" stroke="#EFF9FD"/>
</g>
<defs>
<clipPath id="clip0_442_509">
<rect width="60" height="60" fill="white"/>
</clipPath>
</defs>
</svg>
