<svg width="15" height="15" viewBox="0 0 15 15" fill="none" xmlns="http://www.w3.org/2000/svg">
<g id="Group 427321194">
<g id="Instagram">
<path id="Vector" d="M12.3682 14.2541H2.88183C1.98536 14.2541 1.25 13.5189 1.25 12.6216V3.13252C1.25 2.23526 1.98536 1.5 2.88183 1.5H12.3682C13.2646 1.5 14 2.23526 14 3.13252V12.6216C14 13.5247 13.2705 14.2541 12.3682 14.2541Z" fill="#203468" stroke="#203468" stroke-width="1.5"/>
<path id="Vector_2" d="M11.9952 4.10149C12.3831 4.10149 12.6975 3.78698 12.6975 3.39901C12.6975 3.01104 12.3831 2.69653 11.9952 2.69653C11.6074 2.69653 11.293 3.01104 11.293 3.39901C11.293 3.78698 11.6074 4.10149 11.9952 4.10149Z" fill="white"/>
</g>
<path id="Vector_3" d="M7.49744 11.4072C6.52013 11.4072 5.60134 11.0267 4.91079 10.3359C4.22023 9.64515 3.83984 8.72609 3.83984 7.7485C3.83984 6.77091 4.22023 5.85185 4.91079 5.1611C5.60134 4.47034 6.52013 4.08984 7.49744 4.08984C8.47475 4.08984 9.39354 4.47034 10.0841 5.1611C10.7746 5.85185 11.155 6.77091 11.155 7.7485C11.155 8.72609 10.7746 9.64515 10.0841 10.3359C9.38769 11.0267 8.47475 11.4072 7.49744 11.4072ZM7.49744 4.86841C5.91151 4.86841 4.61818 6.15625 4.61818 7.7485C4.61818 9.3349 5.90565 10.6286 7.49744 10.6286C9.08337 10.6286 10.3767 9.34075 10.3767 7.7485C10.3709 6.16211 9.08337 4.86841 7.49744 4.86841Z" fill="white"/>
</g>
</svg>
