<svg width="32" height="32" viewBox="0 0 32 32" fill="none" xmlns="http://www.w3.org/2000/svg">
<g id="Group 427321205">
<g id="Instagram">
<path id="Vector" d="M26.6513 31.5093H5.34867C2.68121 31.5093 0.5 29.3276 0.5 26.6591V5.35022C0.5 2.68163 2.68121 0.5 5.34867 0.5H26.6513C29.3188 0.5 31.5 2.68163 31.5 5.35022V26.6591C31.5 29.3408 29.3319 31.5093 26.6513 31.5093Z" fill="white" stroke="#203468"/>
<path id="Vector_2" d="M25.8173 7.52609C26.6883 7.52609 27.3943 6.81982 27.3943 5.94859C27.3943 5.07736 26.6883 4.37109 25.8173 4.37109C24.9463 4.37109 24.2402 5.07736 24.2402 5.94859C24.2402 6.81982 24.9463 7.52609 25.8173 7.52609Z" fill="white" stroke="#203468" stroke-width="1.5"/>
</g>
<path id="Vector_3" d="M15.7136 23.9328C13.5189 23.9328 11.4556 23.0784 9.90493 21.5272C8.35421 19.976 7.5 17.9122 7.5 15.7169C7.5 13.5216 8.35421 11.4578 9.90493 9.9066C11.4556 8.35543 13.5189 7.50098 15.7136 7.50098C17.9082 7.50098 19.9715 8.35543 21.5222 9.9066C23.0729 11.4578 23.9271 13.5216 23.9271 15.7169C23.9271 17.9122 23.0729 19.976 21.5222 21.5272C19.9583 23.0784 17.9082 23.9328 15.7136 23.9328ZM15.7136 9.24933C12.1522 9.24933 9.24784 12.1413 9.24784 15.7169C9.24784 19.2793 12.139 22.1845 15.7136 22.1845C19.2749 22.1845 22.1793 19.2925 22.1793 15.7169C22.1661 12.1545 19.2749 9.24933 15.7136 9.24933Z" fill="#203468"/>
</g>
</svg>
