<svg width="28" height="28" viewBox="0 0 28 28" fill="none" xmlns="http://www.w3.org/2000/svg">
<path d="M17.6317 19.7959H9.93298C8.86913 19.7959 8 18.9094 8 17.8243V9.97164C8 8.88651 8.86913 8 9.93298 8H17.6317C18.6955 8 19.5646 8.88651 19.5646 9.97164V17.8243C19.5646 18.9143 18.7003 19.7959 17.6317 19.7959Z" fill="white"/>
<path d="M13.7847 16.9289C12.9916 16.9289 12.246 16.6141 11.6855 16.0424C11.1251 15.4708 10.8164 14.7102 10.8164 13.9012C10.8164 13.0922 11.1251 12.3317 11.6855 11.76C12.246 11.1884 12.9916 10.8735 13.7847 10.8735C14.5779 10.8735 15.3235 11.1884 15.884 11.76C16.4444 12.3317 16.7531 13.0922 16.7531 13.9012C16.7531 14.7102 16.4444 15.4708 15.884 16.0424C15.3188 16.6141 14.5779 16.9289 13.7847 16.9289ZM13.7847 11.5178C12.4977 11.5178 11.4481 12.5836 11.4481 13.9012C11.4481 15.2141 12.4929 16.2847 13.7847 16.2847C15.0718 16.2847 16.1214 15.2189 16.1214 13.9012C16.1167 12.5884 15.0718 11.5178 13.7847 11.5178Z" fill="#0C2054"/>
<path d="M17.3317 10.773C17.6464 10.773 17.9016 10.5127 17.9016 10.1917C17.9016 9.87062 17.6464 9.61035 17.3317 9.61035C17.0169 9.61035 16.7617 9.87062 16.7617 10.1917C16.7617 10.5127 17.0169 10.773 17.3317 10.773Z" fill="#0D2155"/>
</svg>
