<svg width="28" height="28" viewBox="0 0 28 28" fill="none" xmlns="http://www.w3.org/2000/svg">
<path d="M23.4248 7.92118C23.88 8.9398 24.0729 10.3283 24.4044 12.7154C24.9133 16.3792 25.1677 18.2112 24.6083 19.634C24.1171 20.883 23.2103 21.9245 22.0407 22.5828C20.7084 23.3327 18.8589 23.3327 15.1598 23.3327H13.2649C9.56591 23.3327 7.71639 23.3327 6.38409 22.5828C5.21447 21.9245 4.30763 20.883 3.81649 19.634C3.25704 18.2112 3.51147 16.3792 4.02034 12.7154C4.33076 10.4803 4.5196 9.12069 4.91606 8.12043M23.4248 7.92118C23.336 7.72227 23.2371 7.53747 23.1252 7.36209C22.5217 6.41611 21.6582 5.66425 20.6382 5.19665C19.4807 4.66602 18.0404 4.66602 15.1598 4.66602H13.2649C10.3844 4.66602 8.94409 4.66602 7.78657 5.19665C6.76656 5.66425 5.90306 6.41611 5.29958 7.36209C5.15122 7.59466 5.0257 7.8438 4.91606 8.12043M23.4248 7.92118L23.3215 8.02447L22.3204 9.02561C18.4315 12.9145 16.4871 14.8589 14.0708 14.8589C11.6546 14.8589 9.71013 12.9145 5.82124 9.02561L4.91606 8.12043" stroke="#203468" stroke-width="1.5"/>
</svg>
