<svg width="19" height="19" viewBox="0 0 19 19" fill="none" xmlns="http://www.w3.org/2000/svg">
<g id="LinkedIn">
<path id="Vector" d="M4.28857 6.25195H0.318359V18.9164H4.28857V6.25195Z" fill="#33B9EA"/>
<path id="Vector_2" d="M15.0304 5.97473C14.884 5.95643 14.7285 5.94728 14.573 5.93813C12.3501 5.84662 11.0968 7.16431 10.6577 7.73165C10.5388 7.88721 10.4839 7.97872 10.4839 7.97872V6.28585H6.6875V18.9503H10.4839H10.6577C10.6577 17.6601 10.6577 16.379 10.6577 15.0887C10.6577 14.3933 10.6577 13.6979 10.6577 13.0024C10.6577 12.1422 10.5937 11.2272 11.0236 10.4402C11.3895 9.78139 12.0482 9.45197 12.7892 9.45197C14.9847 9.45197 15.0304 11.4376 15.0304 11.6207C15.0304 11.6298 15.0304 11.639 15.0304 11.639V19.0052H19.0006V10.7422C19.0006 7.91466 17.5644 6.24925 15.0304 5.97473Z" fill="#33B9EA"/>
<path id="Vector_3" d="M2.30528 4.61191C3.57845 4.61191 4.61056 3.5795 4.61056 2.30596C4.61056 1.03241 3.57845 0 2.30528 0C1.0321 0 0 1.03241 0 2.30596C0 3.5795 1.0321 4.61191 2.30528 4.61191Z" fill="#33B9EA"/>
</g>
</svg>
