<svg width="28" height="24" viewBox="0 0 28 24" fill="none" xmlns="http://www.w3.org/2000/svg">
<path d="M22.5913 10.1421V9.57645C22.5913 9.49181 22.5913 9.44948 22.5907 9.41368C22.5455 6.7083 19.9978 4.52454 16.8415 4.4858C16.7997 4.48528 16.7503 4.48528 16.6516 4.48529H15.9916M11.4075 8.17314C10.8787 9.21293 11.1463 10.4242 12.0821 11.2262L14.8783 13.623C15.8141 14.4251 17.2272 14.6545 18.4403 14.2012C19.6533 13.748 21.0664 13.9774 22.0022 14.7794L23.7034 16.2376C23.7858 16.3083 23.827 16.3436 23.8604 16.3747C24.6807 17.1399 24.6807 18.316 23.8604 19.0811C23.827 19.1123 23.7858 19.1476 23.7034 19.2182L22.6693 20.1046C21.8272 20.8264 20.6133 21.1294 19.4508 20.9079C11.5296 19.3991 5.34327 14.0966 3.58301 7.307C3.32467 6.31054 3.67817 5.27001 4.52026 4.54821L5.55433 3.66187C5.63675 3.59123 5.67796 3.5559 5.71427 3.52731C6.60695 2.82423 7.97908 2.82423 8.87176 3.52731C8.90806 3.5559 8.94927 3.59123 9.03169 3.66187L10.7329 5.12007C11.6687 5.92212 11.9363 7.13336 11.4075 8.17314Z" stroke="#203468" stroke-width="1.5" stroke-linecap="round"/>
</svg>
