<svg width="395" height="86" viewBox="0 0 395 86" fill="none" xmlns="http://www.w3.org/2000/svg">
<g clip-path="url(#clip0_960_148)">
<path d="M243.557 74.7277C244.476 74.7083 245.385 74.9292 246.195 75.3689C247.005 75.8085 247.689 76.4522 248.181 77.2374L246.91 78.2413C246.573 77.6613 246.089 77.1817 245.51 76.8512C244.93 76.5206 244.274 76.3508 243.608 76.359C242.55 76.359 241.536 76.7836 240.788 77.5394C240.04 78.2952 239.62 79.3204 239.62 80.3892C239.62 81.4581 240.04 82.4832 240.788 83.239C241.536 83.9948 242.55 84.4194 243.608 84.4194C244.274 84.4291 244.931 84.26 245.511 83.9293C246.091 83.5986 246.574 83.1182 246.91 82.5372L248.217 83.5115C247.731 84.3022 247.048 84.9505 246.237 85.392C245.426 85.8336 244.514 86.053 243.593 86.0286C242.844 86.056 242.097 85.9305 241.396 85.6596C240.696 85.3888 240.057 84.978 239.517 84.452C238.977 83.926 238.548 83.2955 238.255 82.598C237.962 81.9006 237.811 81.1507 237.811 80.3929C237.811 79.6352 237.962 78.8852 238.255 78.1878C238.548 77.4904 238.977 76.8598 239.517 76.3338C240.057 75.8078 240.696 75.3971 241.396 75.1262C242.097 74.8553 242.844 74.7299 243.593 74.7573L243.557 74.7277Z" fill="#33B9EA"/>
<path d="M272.284 84.0003H267.426L266.696 85.8162H264.848L269.603 74.7441H270.195L274.958 85.8162H273.088L272.284 84.0003ZM269.866 77.9845L268.047 82.4945H271.663L269.866 77.9845Z" fill="#33B9EA"/>
<path d="M292.35 74.9043H296.294C298.486 74.9043 299.947 76.2772 299.947 78.248C299.947 80.2189 298.486 81.5992 296.294 81.5992H294.103V85.8139H292.372L292.35 74.9043ZM296.258 80.0712C296.504 80.0939 296.753 80.0643 296.988 79.9845C297.222 79.9046 297.438 79.7762 297.621 79.6074C297.804 79.4387 297.95 79.2333 298.05 79.0043C298.15 78.7753 298.201 78.5278 298.201 78.2776C298.201 78.0273 298.15 77.7798 298.05 77.5508C297.95 77.3219 297.804 77.1165 297.621 76.9477C297.438 76.7789 297.222 76.6505 296.988 76.5707C296.753 76.4908 296.504 76.4613 296.258 76.4839H294.066V80.0712H296.258Z" fill="#33B9EA"/>
<path d="M317.598 74.9043H319.336V85.8139H317.598V74.9043Z" fill="#33B9EA"/>
<path d="M340.295 76.4765H336.643V74.9043H345.657V76.4765H342.004V85.8139H340.266L340.295 76.4765Z" fill="#33B9EA"/>
<path d="M368.256 84.0003H363.398L362.631 85.8162H360.783L365.546 74.7441H366.13L370.893 85.8162H369.023L368.256 84.0003ZM365.838 77.9845L364.019 82.4945H367.635L365.838 77.9845Z" fill="#33B9EA"/>
<path d="M388.32 74.9043H390.081V84.2417H395.026V85.8139H388.35L388.32 74.9043Z" fill="#33B9EA"/>
<path d="M222.078 79.7188H105.594V81.0105H222.078V79.7188Z" fill="#33B9EA"/>
<path d="M105.594 35.8438L119.334 35.888C121.64 35.8604 123.934 36.2247 126.121 36.9657C128.05 37.6251 129.832 38.6609 131.366 40.0142C132.822 41.3339 133.976 42.9586 134.748 44.7752C135.561 46.7222 135.969 48.8178 135.946 50.9312C135.972 53.0354 135.607 55.1259 134.872 57.0946C134.212 58.875 133.192 60.4966 131.877 61.8556C130.559 63.192 128.975 64.231 127.231 64.9041C125.299 65.6498 123.244 66.018 121.175 65.9891H105.594V65.4725H106.105C106.519 65.4847 106.931 65.4096 107.315 65.252C107.698 65.0944 108.045 64.8578 108.333 64.5572C108.85 63.7991 109.093 62.884 109.02 61.9663V39.9109C109.093 38.9908 108.85 38.0735 108.333 37.3126C108.044 37.0145 107.696 36.7799 107.313 36.6237C106.929 36.4675 106.518 36.3929 106.105 36.4047L105.594 36.3604V35.8438ZM113.768 64.7417H121.19C122.619 64.7633 124.031 64.4206 125.295 63.7452C126.539 63.0563 127.616 62.0985 128.451 60.9403C129.385 59.6225 130.076 58.1445 130.489 56.5779C130.985 54.7329 131.231 52.8283 131.219 50.9165C131.241 48.9967 130.95 47.0865 130.357 45.2623C129.841 43.6613 129.017 42.1789 127.932 40.9C126.901 39.6978 125.622 38.738 124.185 38.0877C122.655 37.415 121.002 37.0779 119.334 37.0986H113.797L113.768 64.7417Z" fill="#203468"/>
<path d="M140.254 50.9311C140.24 48.9197 140.573 46.9212 141.241 45.0261C141.866 43.2157 142.862 41.5584 144.163 40.1618C145.54 38.7185 147.203 37.5842 149.042 36.8328C151.193 35.9698 153.493 35.5506 155.807 35.6001C158.113 35.5476 160.407 35.9669 162.549 36.8328C164.382 37.5844 166.038 38.7188 167.407 40.1618C168.736 41.5511 169.759 43.2088 170.409 45.0261C171.724 48.8355 171.724 52.9825 170.409 56.7919C169.77 58.6067 168.763 60.2662 167.451 61.6636C166.079 63.1042 164.425 64.2382 162.593 64.9926C160.45 65.8548 158.157 66.274 155.85 66.2253C153.537 66.2712 151.238 65.8522 149.086 64.9926C147.248 64.2384 145.586 63.1045 144.206 61.6636C142.907 60.2631 141.912 58.6037 141.284 56.7919C140.607 54.9134 140.259 52.9303 140.254 50.9311ZM145.565 50.9311C145.554 52.7547 145.77 54.5725 146.208 56.3417C146.587 57.9338 147.237 59.4474 148.129 60.8147C148.956 62.0678 150.055 63.1131 151.343 63.8706C152.701 64.6368 154.237 65.0241 155.792 64.9926C157.343 65.0261 158.874 64.6386 160.226 63.8706C161.501 63.1115 162.586 62.0659 163.396 60.8147C164.275 59.4429 164.917 57.9305 165.296 56.3417C166.153 52.7891 166.153 49.0805 165.296 45.528C164.919 43.9364 164.276 42.4213 163.396 41.0475C162.588 39.7969 161.502 38.7532 160.226 37.999C158.877 37.2405 157.35 36.8631 155.807 36.9066C154.25 36.8745 152.714 37.2645 151.358 38.0359C150.069 38.7885 148.969 39.8318 148.144 41.0844C147.251 42.4538 146.6 43.97 146.223 45.5649C145.787 47.3195 145.571 49.1223 145.58 50.9311H145.565Z" fill="#203468"/>
<path d="M187.875 36.3604L187.962 36.4047L187.1 36.449C185.018 36.5376 184.31 37.5046 184.96 39.3499L194.128 60.3277L200.885 41.3355C201.455 39.6919 201.525 38.4813 201.097 37.7038C200.666 36.9214 199.68 36.5081 198.175 36.449L197.4 36.4047V35.888H207.459V36.4047L206.948 36.449C205.092 36.5376 203.748 37.5415 202.923 39.4754L193.01 66.683H191.768L179.825 39.9109C179.451 38.9336 178.876 38.0479 178.137 37.3126C177.53 36.767 176.757 36.4467 175.946 36.4047L175.559 36.3604V35.8438H187.845L187.875 36.3604Z" fill="#203468"/>
<path d="M230.833 54.4011H230.789L230.621 53.7958C230.359 52.7569 229.713 51.8588 228.817 51.2862C227.696 50.7232 226.449 50.4686 225.201 50.548H219.875V64.7866H227.005C228.551 64.8368 230.077 64.4205 231.388 63.5908C232.738 62.6124 233.821 61.3047 234.536 59.7895L235.179 58.6158H235.523C235.347 59.6566 235.157 60.8302 234.945 62.0334C234.734 63.2365 234.536 64.4028 234.368 65.414H234.325L234.237 66.0193H211.672V65.4952L212.191 65.4509C212.598 65.4626 213.004 65.3878 213.381 65.2314C213.759 65.0751 214.1 64.8406 214.382 64.543C214.902 63.7866 215.145 62.8702 215.069 61.9522V39.9558C215.146 39.0353 214.904 38.1163 214.382 37.3576C214.097 37.0633 213.756 36.8309 213.379 36.6748C213.002 36.5187 212.598 36.4421 212.191 36.4497L211.672 36.4054V35.8887H234.237V43.27H233.894L233.506 42.1038C233.097 40.611 232.233 39.2863 231.037 38.3171C229.805 37.4753 228.337 37.0584 226.852 37.1287H219.875V49.3818H225.201C226.433 49.4471 227.664 49.2116 228.787 48.6953C229.648 48.2127 230.299 47.423 230.614 46.4809L230.789 45.9568H231.176V54.4011H230.833Z" fill="#203468"/>
<path d="M272.73 65.4724V65.9965H261.122V65.4724H261.641C262.049 65.4804 262.454 65.4032 262.831 65.2458C263.208 65.0883 263.549 64.8538 263.833 64.5572C264.353 63.8007 264.596 62.8844 264.519 61.9663V50.7245H248.156V61.9294C248.081 62.8463 248.321 63.7613 248.836 64.5203C249.124 64.8209 249.47 65.0575 249.854 65.2151C250.238 65.3727 250.65 65.4478 251.064 65.4355H251.575V65.9596H239.975V65.4724H240.493C240.901 65.4804 241.306 65.4032 241.683 65.2458C242.061 65.0883 242.401 64.8538 242.685 64.5572C243.205 63.8007 243.448 62.8844 243.371 61.9663V39.9109C243.448 38.9905 243.205 38.0719 242.685 37.3126C242.4 37.0184 242.059 36.786 241.682 36.6299C241.305 36.4737 240.9 36.3971 240.493 36.4047L239.975 36.3604V35.8438H251.575V36.3604L251.064 36.4047C250.65 36.3925 250.238 36.4676 249.854 36.6252C249.47 36.7828 249.124 37.0194 248.836 37.32C248.321 38.0818 248.081 38.9991 248.156 39.9183V49.6026H264.548V39.9183C264.624 38.9957 264.381 38.0752 263.862 37.3126C263.577 37.0184 263.236 36.786 262.859 36.6299C262.482 36.4737 262.078 36.3971 261.67 36.4047L261.152 36.3604V35.8438H272.759V36.3604L272.241 36.4047C271.827 36.3938 271.416 36.4688 271.033 36.6249C270.65 36.7811 270.303 37.0152 270.013 37.3126C269.498 38.0744 269.258 38.9917 269.333 39.9109V61.9294C269.258 62.8463 269.498 63.7613 270.013 64.5203C270.301 64.8201 270.648 65.0563 271.032 65.2138C271.415 65.3713 271.827 65.4468 272.241 65.4355L272.73 65.4724Z" fill="#203468"/>
<path d="M277.01 50.9309C276.997 48.9202 277.328 46.9223 277.989 45.0258C278.626 43.2124 279.634 41.555 280.948 40.1615C282.324 38.7165 283.987 37.582 285.827 36.8325C290.183 35.1886 294.979 35.1886 299.334 36.8325C301.166 37.5861 302.821 38.7203 304.192 40.1615C305.505 41.555 306.513 43.2124 307.15 45.0258C308.456 48.8369 308.456 52.9806 307.15 56.7917C306.512 58.6065 305.504 60.266 304.192 61.6634C302.819 63.1024 301.165 64.2362 299.334 64.9923C294.979 66.6362 290.183 66.6362 285.827 64.9923C283.988 64.2401 282.326 63.106 280.948 61.6634C279.636 60.266 278.628 58.6065 277.989 56.7917C277.333 54.9092 277.002 52.9267 277.01 50.9309ZM282.314 50.9309C282.307 52.7543 282.522 54.5715 282.956 56.3414C283.343 57.936 283.998 59.4516 284.892 60.8219C285.717 62.0767 286.817 63.1224 288.106 63.8778C289.464 64.644 291 65.0312 292.555 64.9997C294.106 65.0332 295.637 64.6458 296.989 63.8778C298.262 63.1184 299.344 62.0727 300.152 60.8219C301.036 59.4521 301.681 57.9391 302.059 56.3488C302.916 52.7962 302.916 49.0877 302.059 45.5351C301.683 43.9421 301.038 42.4264 300.152 41.0547C299.347 39.8038 298.264 38.76 296.989 38.0062C295.634 37.2412 294.099 36.8611 292.548 36.9063C290.992 36.8735 289.455 37.2636 288.099 38.0357C286.808 38.7861 285.708 39.8298 284.885 41.0842C283.992 42.4547 283.34 43.9704 282.956 45.5647C282.525 47.3199 282.309 49.1223 282.314 50.9309Z" fill="#203468"/>
<path d="M342.251 35.8448L342.295 36.3615L341.696 36.4058C341.233 36.3912 340.771 36.4764 340.343 36.6559C339.915 36.8354 339.529 37.1049 339.212 37.4466C338.632 38.3143 338.362 39.3555 338.445 40.3991V57.4279C338.459 58.6617 338.249 59.8877 337.824 61.0447C337.412 62.1168 336.741 63.0681 335.874 63.8127C334.861 64.6415 333.686 65.2451 332.426 65.5843C330.759 66.0365 329.038 66.2477 327.313 66.2117C325.515 66.2544 323.722 66.0052 322.002 65.4735C320.677 65.0611 319.458 64.3608 318.43 63.4215C317.5 62.5392 316.8 61.4389 316.392 60.218C315.954 58.8728 315.739 57.4636 315.756 56.0476V39.912C315.829 38.9919 315.587 38.0746 315.069 37.3137C314.78 37.0156 314.433 36.781 314.049 36.6248C313.666 36.4686 313.255 36.394 312.841 36.4058L312.33 36.3615V35.8448H323.93V36.3615L323.419 36.4058C323.006 36.3936 322.594 36.4679 322.211 36.6242C321.827 36.7804 321.48 37.0152 321.191 37.3137C320.671 38.073 320.428 38.9916 320.504 39.912V56.9998C320.409 58.9811 321.024 60.9307 322.236 62.4915C323.397 63.8792 325.311 64.5656 327.999 64.5656C329.396 64.5992 330.788 64.4099 332.126 64.0047C333.147 63.693 334.089 63.1617 334.888 62.4472C335.598 61.7911 336.135 60.9667 336.451 60.0483C336.792 59.0388 336.96 57.9778 336.948 56.9112V40.3844C337.032 39.3331 336.742 38.2862 336.13 37.4318C335.789 37.0864 335.382 36.8157 334.933 36.6366C334.484 36.4575 334.004 36.3739 333.522 36.3911L332.879 36.3468V35.8301L342.251 35.8448Z" fill="#203468"/>
<path d="M365.07 44.9299L364.683 44.8857C364.486 44.3394 364.267 43.7342 364.018 43.092C363.77 42.4498 363.544 41.8445 363.288 41.2909C362.904 40.2255 362.273 39.2686 361.447 38.5008C360.698 37.77 359.766 37.2596 358.752 37.0245C358.752 37.0245 358.642 36.9655 358.43 36.936L357.7 36.8474L356.567 36.7662C354.836 36.6802 353.137 37.2604 351.812 38.3901C351.217 38.9292 350.747 39.5945 350.437 40.3385C350.126 41.0824 349.982 41.8866 350.015 42.6934C350.034 43.3282 350.251 43.9406 350.636 44.4428C351.121 45.1011 351.705 45.6788 352.367 46.1553C353.218 46.7605 354.129 47.275 355.084 47.6906C356.25 48.2053 357.448 48.6393 358.671 48.9897C359.861 49.3106 361.005 49.7844 362.075 50.3995C363.025 50.9448 363.895 51.6205 364.661 52.4072C365.359 53.1274 365.932 53.9607 366.356 54.8726C366.752 55.7353 366.956 56.675 366.955 57.6259C366.973 58.8397 366.724 60.0425 366.225 61.1468C365.748 62.1925 365.047 63.1178 364.172 63.8557C363.227 64.633 362.143 65.2194 360.98 65.5829C359.644 66.002 358.251 66.2062 356.852 66.1882C355.881 66.1882 354.902 66.1365 353.93 66.0406C352.959 65.9446 352.009 65.7896 351.111 65.6051C350.257 65.4474 349.415 65.2304 348.59 64.9555C347.895 64.7174 347.221 64.4211 346.574 64.0698V56.8361H346.983C347.071 57.0944 347.166 57.3823 347.283 57.6997C347.4 58.0171 347.495 58.3049 347.582 58.5707C348.203 60.2686 349.256 61.7709 350.636 62.9257C351.915 64.0275 353.499 64.7052 355.172 64.8669L355.946 64.9334H356.502H356.801C358.547 65.0197 360.269 64.4987 361.681 63.4571C362.272 63.0006 362.748 62.4083 363.068 61.7293C363.388 61.0504 363.544 60.3041 363.522 59.5524C363.511 58.8481 363.295 58.1627 362.901 57.5816C362.423 56.8668 361.831 56.238 361.148 55.7215C360.297 55.0735 359.378 54.5215 358.408 54.0754C357.266 53.5424 356.083 53.1007 354.873 52.7542C353.705 52.4297 352.577 51.9716 351.512 51.3886C350.566 50.8791 349.696 50.2381 348.926 49.4842C348.243 48.8181 347.684 48.033 347.275 47.1665C346.898 46.3663 346.701 45.4915 346.698 44.6052C346.69 43.3374 346.938 42.0813 347.429 40.9145C347.897 39.8167 348.592 38.8326 349.467 38.0284C350.389 37.1993 351.468 36.5667 352.637 36.1683C353.967 35.7191 355.363 35.4995 356.765 35.5187C358.245 35.5275 359.718 35.7284 361.148 36.1166C362.528 36.4652 363.853 37.0068 365.085 37.7258L365.07 44.9299Z" fill="#203468"/>
<path d="M390.291 54.4011H390.247L390.072 53.7958C389.813 52.7556 389.167 51.8566 388.268 51.2862C387.151 50.7224 385.905 50.4678 384.659 50.548H379.327V64.7866H386.434C387.98 64.8341 389.505 64.418 390.817 63.5908C392.182 62.6149 393.283 61.3076 394.017 59.7895L394.66 58.6158H395.003C394.828 59.6566 394.638 60.8302 394.419 62.0334C394.199 63.2365 394.017 64.4028 393.842 65.414H393.798L393.717 66.0193H371.152V65.4952L371.664 65.4509C372.078 65.4678 372.49 65.3956 372.874 65.2391C373.258 65.0825 373.605 64.8453 373.892 64.543C374.412 63.7866 374.655 62.8702 374.578 61.9522V39.9558C374.656 39.0353 374.413 38.1163 373.892 37.3576C373.602 37.059 373.255 36.8242 372.872 36.668C372.488 36.5117 372.077 36.4374 371.664 36.4497L371.152 36.4054V35.8887H393.739V43.27H393.396L393.009 42.1185C392.599 40.6258 391.735 39.3011 390.54 38.3319C389.308 37.4901 387.84 37.0732 386.354 37.1435H379.392V49.3818H384.725C385.958 49.4462 387.188 49.2108 388.312 48.6953C389.172 48.2127 389.823 47.423 390.138 46.4809L390.313 45.9568H390.7V54.4011H390.291Z" fill="#203468"/>
<path d="M97.7985 30.95L111.831 29.0382L98.7117 19.9149L79.7992 26.1964L89.0107 38.6561L59.3015 8.20067L0 0L44.2898 32.9208L25.1363 21.0811L12.1408 20.0994L54.787 42.1032H57.5337L43.2525 86L61.3761 61.8335L52.2888 64.6679L93.1599 44.9376L97.9227 23.4284L97.7985 30.95Z" fill="#33B9EA"/>
</g>
<defs>
<clipPath id="clip0_960_148">
<rect width="395" height="86" fill="white"/>
</clipPath>
</defs>
</svg>
