<svg width="432" height="94" viewBox="0 0 432 94" fill="none" xmlns="http://www.w3.org/2000/svg">
<g clip-path="url(#clip0_699_147)">
<path d="M266.371 81.679C267.376 81.6578 268.37 81.8992 269.256 82.3798C270.142 82.8604 270.89 83.5639 271.428 84.4221L270.038 85.5194C269.669 84.8855 269.14 84.3613 268.506 84C267.872 83.6387 267.155 83.4531 266.426 83.462C265.27 83.462 264.16 83.9262 263.342 84.7523C262.524 85.5784 262.064 86.6989 262.064 87.8672C262.064 89.0355 262.524 90.1559 263.342 90.982C264.16 91.8082 265.27 92.2723 266.426 92.2723C267.155 92.2829 267.873 92.098 268.507 91.7365C269.142 91.3751 269.67 90.85 270.038 90.2149L271.468 91.2799C270.936 92.1441 270.189 92.8527 269.302 93.3354C268.415 93.818 267.418 94.0578 266.41 94.0311C265.591 94.0611 264.774 93.9239 264.008 93.6278C263.242 93.3318 262.543 92.8828 261.952 92.3079C261.362 91.7329 260.893 91.0437 260.572 90.2814C260.251 89.5192 260.086 88.6994 260.086 87.8712C260.086 87.043 260.251 86.2232 260.572 85.4609C260.893 84.6987 261.362 84.0095 261.952 83.4345C262.543 82.8595 263.242 82.4106 264.008 82.1146C264.774 81.8185 265.591 81.6813 266.41 81.7113L266.371 81.679Z" fill="#33B9EA"/>
<path d="M297.789 91.8145H292.476L291.678 93.7992H289.656L294.857 81.6973H295.504L300.713 93.7992H298.668L297.789 91.8145ZM295.145 85.2391L293.156 90.1686H297.11L295.145 85.2391Z" fill="#33B9EA"/>
<path d="M319.734 81.873H324.049C326.445 81.873 328.043 83.3737 328.043 85.5278C328.043 87.682 326.445 89.1907 324.049 89.1907H321.652V93.7975H319.758L319.734 81.873ZM324.009 87.5206C324.278 87.5454 324.55 87.5131 324.807 87.4258C325.064 87.3385 325.3 87.1982 325.5 87.0137C325.7 86.8292 325.859 86.6047 325.969 86.3544C326.078 86.1042 326.134 85.8336 326.134 85.5601C326.134 85.2866 326.078 85.0161 325.969 84.7658C325.859 84.5155 325.7 84.291 325.5 84.1065C325.3 83.9221 325.064 83.7817 324.807 83.6944C324.55 83.6072 324.278 83.5749 324.009 83.5996H321.612V87.5206H324.009Z" fill="#33B9EA"/>
<path d="M347.348 81.873H349.249V93.7975H347.348V81.873Z" fill="#33B9EA"/>
<path d="M372.17 83.5915H368.176V81.873H378.034V83.5915H374.04V93.7975H372.138L372.17 83.5915Z" fill="#33B9EA"/>
<path d="M402.751 91.8145H397.438L396.599 93.7992H394.578L399.787 81.6973H400.426L405.635 93.7992H403.59L402.751 91.8145ZM400.107 85.2391L398.117 90.1686H402.072L400.107 85.2391Z" fill="#33B9EA"/>
<path d="M424.695 81.873H426.621V92.079H432.029V93.7975H424.727L424.695 81.873Z" fill="#33B9EA"/>
<path d="M242.88 87.1348H115.484V88.5467H242.88V87.1348Z" fill="#33B9EA"/>
<path d="M115.484 39.1777L130.512 39.2261C133.034 39.1959 135.543 39.5941 137.934 40.4041C140.044 41.1248 141.993 42.2569 143.67 43.7361C145.263 45.1786 146.526 46.9544 147.369 48.94C148.259 51.0682 148.705 53.3587 148.679 55.6687C148.708 57.9686 148.309 60.2536 147.505 62.4054C146.784 64.3514 145.668 66.1238 144.23 67.6093C142.788 69.07 141.056 70.2057 139.148 70.9414C137.035 71.7565 134.787 72.1589 132.525 72.1274H115.484V71.5626H116.044C116.496 71.5759 116.947 71.4939 117.366 71.3216C117.786 71.1494 118.165 70.8907 118.48 70.5622C119.046 69.7336 119.311 68.7334 119.231 67.7303V43.6232C119.311 42.6176 119.046 41.6149 118.48 40.7833C118.164 40.4574 117.784 40.201 117.365 40.0302C116.945 39.8595 116.496 39.778 116.044 39.7909L115.484 39.7425V39.1777ZM124.424 70.7639H132.541C134.105 70.7874 135.649 70.4129 137.031 69.6747C138.391 68.9217 139.57 67.8748 140.483 66.6089C141.505 65.1685 142.26 63.553 142.712 61.8407C143.254 59.824 143.523 57.7423 143.51 55.6525C143.534 53.5543 143.215 51.4664 142.568 49.4725C142.002 47.7225 141.101 46.1022 139.915 44.7043C138.787 43.3903 137.389 42.3412 135.817 41.6304C134.144 40.8951 132.336 40.5267 130.512 40.5493H124.456L124.424 70.7639Z" fill="white"/>
<path d="M153.391 55.6682C153.375 53.4697 153.74 51.2853 154.47 49.2139C155.154 47.2351 156.243 45.4236 157.665 43.8971C159.172 42.3195 160.99 41.0798 163.002 40.2584C165.354 39.3151 167.87 38.857 170.4 38.911C172.923 38.8536 175.431 39.3119 177.774 40.2584C179.779 41.08 181.59 42.3199 183.087 43.8971C184.541 45.4156 185.66 47.2276 186.371 49.2139C187.809 53.3776 187.809 57.9104 186.371 62.0742C185.672 64.0578 184.57 65.8717 183.135 67.3991C181.635 68.9736 179.825 70.2132 177.822 71.0377C175.478 71.9802 172.971 72.4383 170.448 72.3851C167.918 72.4352 165.403 71.9773 163.05 71.0377C161.04 70.2134 159.222 68.974 157.713 67.3991C156.292 65.8683 155.204 64.0546 154.518 62.0742C153.777 60.021 153.396 57.8534 153.391 55.6682ZM159.199 55.6682C159.187 57.6615 159.424 59.6483 159.902 61.5821C160.317 63.3224 161.028 64.9767 162.003 66.4713C162.908 67.8409 164.11 68.9834 165.519 69.8114C167.004 70.6489 168.683 71.0721 170.384 71.0377C172.08 71.0743 173.755 70.6508 175.234 69.8114C176.628 68.9817 177.814 67.8388 178.701 66.4713C179.662 64.9718 180.364 63.3187 180.778 61.5821C181.715 57.6991 181.715 53.6455 180.778 49.7625C180.366 48.0229 179.663 46.3668 178.701 44.8652C177.816 43.4982 176.629 42.3575 175.234 41.5331C173.758 40.704 172.088 40.2916 170.4 40.3391C168.698 40.304 167.018 40.7303 165.535 41.5735C164.125 42.3961 162.922 43.5364 162.019 44.9056C161.043 46.4023 160.332 48.0595 159.918 49.8028C159.442 51.7207 159.206 53.6911 159.215 55.6682H159.199Z" fill="white"/>
<path d="M205.474 39.7425L205.57 39.7909L204.627 39.8393C202.35 39.9361 201.575 40.993 202.286 43.01L212.312 65.9392L219.702 45.1803C220.326 43.3838 220.403 42.0607 219.934 41.2109C219.463 40.3557 218.384 39.9039 216.738 39.8393L215.892 39.7909V39.2261H226.893V39.7909L226.333 39.8393C224.304 39.9361 222.834 41.0334 221.931 43.1472L211.09 72.8857H209.732L196.67 43.6232C196.261 42.555 195.632 41.5869 194.824 40.7833C194.16 40.1868 193.315 39.8368 192.427 39.7909L192.004 39.7425V39.1777H205.442L205.474 39.7425Z" fill="white"/>
<path d="M252.456 59.461H252.408L252.224 58.7995C251.938 57.664 251.232 56.6823 250.251 56.0564C249.026 55.441 247.662 55.1627 246.296 55.2496H240.472V70.8127H248.269C249.96 70.8675 251.629 70.4125 253.063 69.5057C254.539 68.4362 255.724 67.0068 256.506 65.3507L257.209 64.0679H257.585C257.393 65.2055 257.185 66.4883 256.954 67.8033C256.722 69.1184 256.506 70.3932 256.322 71.4985H256.275L256.179 72.16H231.5V71.5872L232.067 71.5388C232.513 71.5515 232.957 71.4698 233.37 71.2989C233.782 71.128 234.155 70.8717 234.464 70.5465C235.033 69.7196 235.299 68.7181 235.215 67.7146V43.672C235.3 42.6659 235.034 41.6614 234.464 40.8321C234.153 40.5104 233.779 40.2565 233.367 40.0858C232.955 39.9152 232.513 39.8314 232.067 39.8397L231.5 39.7913V39.2266H256.179V47.2945H255.803L255.38 46.0198C254.932 44.3882 253.987 42.9402 252.679 41.8809C251.332 40.9608 249.726 40.5051 248.102 40.582H240.472V53.9748H246.296C247.644 54.0462 248.99 53.7889 250.219 53.2245C251.16 52.697 251.872 51.8339 252.216 50.8041L252.408 50.2313H252.831V59.461H252.456Z" fill="white"/>
<path d="M298.277 71.5626V72.1354H285.582V71.5626H286.149C286.595 71.5713 287.038 71.4869 287.451 71.3148C287.863 71.1427 288.236 70.8864 288.546 70.5622C289.115 69.7353 289.381 68.7338 289.297 67.7303V55.4428H271.401V67.69C271.319 68.6921 271.581 69.6922 272.144 70.5218C272.459 70.8504 272.838 71.109 273.258 71.2813C273.678 71.4535 274.128 71.5356 274.581 71.5223H275.14V72.0951H262.453V71.5626H263.02C263.467 71.5713 263.91 71.4869 264.322 71.3148C264.734 71.1427 265.107 70.8864 265.417 70.5622C265.986 69.7353 266.252 68.7338 266.168 67.7303V43.6232C266.252 42.6172 265.986 41.6132 265.417 40.7833C265.106 40.4616 264.732 40.2076 264.32 40.037C263.908 39.8663 263.466 39.7826 263.02 39.7909L262.453 39.7425V39.1777H275.14V39.7425L274.581 39.7909C274.128 39.7776 273.678 39.8596 273.258 40.0319C272.838 40.2041 272.459 40.4628 272.144 40.7913C271.581 41.624 271.319 42.6266 271.401 43.6313V54.2164H289.329V43.6313C289.411 42.6229 289.146 41.6168 288.578 40.7833C288.266 40.4616 287.893 40.2076 287.481 40.037C287.069 39.8663 286.626 39.7826 286.181 39.7909L285.614 39.7425V39.1777H298.309V39.7425L297.741 39.7909C297.29 39.779 296.84 39.8609 296.421 40.0316C296.002 40.2023 295.622 40.4581 295.305 40.7833C294.742 41.6159 294.48 42.6185 294.562 43.6232V67.69C294.48 68.6921 294.742 69.6922 295.305 70.5218C295.62 70.8496 296 71.1077 296.419 71.2799C296.839 71.4521 297.289 71.5346 297.741 71.5223L298.277 71.5626Z" fill="white"/>
<path d="M302.957 55.6696C302.943 53.4718 303.305 51.2881 304.028 49.2152C304.725 47.2331 305.827 45.4215 307.264 43.8984C308.769 42.319 310.587 41.0789 312.6 40.2597C317.364 38.4629 322.609 38.4629 327.372 40.2597C329.376 41.0834 331.186 42.3231 332.685 43.8984C334.122 45.4215 335.224 47.2331 335.921 49.2152C337.348 53.3808 337.348 57.9099 335.921 62.0755C335.222 64.0591 334.12 65.873 332.685 67.4004C331.184 68.9733 329.375 70.2126 327.372 71.0391C322.609 72.8359 317.364 72.8359 312.6 71.0391C310.589 70.2168 308.771 68.9772 307.264 67.4004C305.829 65.873 304.727 64.0591 304.028 62.0755C303.31 60.0179 302.948 57.851 302.957 55.6696ZM308.758 55.6696C308.75 57.6625 308.986 59.6489 309.461 61.5834C309.883 63.3263 310.599 64.9829 311.578 66.4806C312.48 67.8522 313.683 68.9952 315.093 69.8208C316.578 70.6583 318.258 71.0815 319.958 71.0471C321.654 71.0837 323.329 70.6602 324.808 69.8208C326.2 68.9908 327.384 67.8478 328.267 66.4806C329.234 64.9834 329.94 63.3297 330.352 61.5915C331.29 57.7084 331.29 53.6549 330.352 49.7719C329.941 48.0306 329.236 46.374 328.267 44.8746C327.386 43.5074 326.202 42.3665 324.808 41.5425C323.326 40.7064 321.647 40.291 319.951 40.3404C318.249 40.3045 316.568 40.7309 315.085 41.5748C313.673 42.3951 312.47 43.5358 311.57 44.9069C310.594 46.4049 309.88 48.0616 309.461 49.8041C308.989 51.7227 308.753 53.6927 308.758 55.6696Z" fill="white"/>
<path d="M374.31 39.1782L374.358 39.743L373.703 39.7914C373.196 39.7754 372.691 39.8686 372.223 40.0648C371.755 40.2609 371.333 40.5555 370.986 40.929C370.352 41.8774 370.056 43.0155 370.147 44.1562V62.769C370.163 64.1177 369.932 65.4577 369.468 66.7223C369.017 67.8941 368.284 68.9339 367.335 69.7478C366.227 70.6536 364.942 71.3134 363.564 71.6841C361.742 72.1784 359.859 72.4093 357.972 72.3699C356.005 72.4166 354.044 72.1442 352.164 71.5631C350.715 71.1123 349.381 70.3468 348.257 69.3202C347.24 68.3558 346.475 67.1532 346.028 65.8187C345.549 64.3483 345.314 62.8081 345.333 61.2603V43.6237C345.413 42.6181 345.147 41.6154 344.582 40.7838C344.265 40.4579 343.885 40.2015 343.466 40.0307C343.047 39.86 342.597 39.7785 342.145 39.7914L341.586 39.743V39.1782H354.273V39.743L353.714 39.7914C353.262 39.778 352.812 39.8593 352.392 40.0301C351.973 40.2008 351.593 40.4575 351.277 40.7838C350.708 41.6137 350.442 42.6177 350.526 43.6237V62.3011C350.422 64.4667 351.094 66.5976 352.419 68.3036C353.69 69.8204 355.783 70.5707 358.723 70.5707C360.25 70.6075 361.773 70.4005 363.237 69.9576C364.353 69.617 365.383 69.0362 366.257 68.2552C367.033 67.5382 367.621 66.637 367.966 65.6331C368.34 64.5298 368.523 63.3701 368.51 62.2042V44.14C368.601 42.991 368.284 41.8467 367.615 40.9129C367.242 40.5353 366.797 40.2394 366.306 40.0436C365.815 39.8479 365.29 39.7565 364.763 39.7753L364.06 39.7269V39.1621L374.31 39.1782Z" fill="white"/>
<path d="M399.268 49.1102L398.844 49.0618C398.629 48.4648 398.389 47.8032 398.117 47.1013C397.846 46.3994 397.598 45.7378 397.318 45.1327C396.899 43.9681 396.208 42.9223 395.305 42.083C394.486 41.2842 393.467 40.7263 392.357 40.4694C392.357 40.4694 392.237 40.4049 392.006 40.3726L391.207 40.2758L389.968 40.187C388.075 40.093 386.216 40.7272 384.767 41.962C384.117 42.5512 383.603 43.2785 383.263 44.0916C382.923 44.9048 382.766 45.7838 382.802 46.6656C382.823 47.3594 383.06 48.0289 383.481 48.5777C384.012 49.2972 384.651 49.9287 385.374 50.4495C386.305 51.111 387.301 51.6734 388.346 52.1276C389.621 52.6902 390.931 53.1646 392.269 53.5476C393.57 53.8984 394.822 54.4163 395.992 55.0886C397.031 55.6846 397.983 56.4231 398.82 57.2831C399.583 58.0702 400.21 58.9811 400.674 59.9778C401.107 60.9207 401.33 61.9478 401.329 62.9871C401.349 64.3139 401.076 65.6286 400.53 66.8356C400.009 67.9785 399.242 68.99 398.285 69.7965C397.252 70.6461 396.067 71.2871 394.794 71.6844C393.333 72.1424 391.81 72.3657 390.28 72.346C389.217 72.346 388.147 72.2895 387.084 72.1846C386.022 72.0797 384.983 71.9103 384 71.7086C383.067 71.5363 382.146 71.2991 381.244 70.9986C380.484 70.7383 379.746 70.4145 379.039 70.0305V62.1239H379.486C379.582 62.4062 379.686 62.7209 379.814 63.0678C379.942 63.4147 380.046 63.7294 380.142 64.0198C380.82 65.8757 381.972 67.5177 383.481 68.7799C384.88 69.9843 386.612 70.725 388.442 70.9018L389.289 70.9744H389.896H390.224C392.133 71.0688 394.017 70.4993 395.561 69.3608C396.208 68.8618 396.728 68.2145 397.078 67.4723C397.428 66.7302 397.598 65.9146 397.574 65.0929C397.562 64.3231 397.326 63.5739 396.895 62.9387C396.373 62.1575 395.725 61.4702 394.978 60.9056C394.047 60.1973 393.042 59.594 391.982 59.1064C390.732 58.5239 389.439 58.041 388.115 57.6623C386.838 57.3076 385.605 56.8069 384.44 56.1697C383.405 55.6128 382.453 54.9121 381.612 54.0881C380.864 53.3601 380.252 52.5019 379.806 51.5548C379.393 50.6801 379.178 49.724 379.175 48.7552C379.165 47.3695 379.437 45.9966 379.974 44.7212C380.486 43.5213 381.246 42.4457 382.203 41.5666C383.211 40.6605 384.391 39.969 385.67 39.5335C387.125 39.0425 388.651 38.8025 390.184 38.8235C391.803 38.8331 393.414 39.0527 394.978 39.477C396.487 39.858 397.936 40.45 399.284 41.2359L399.268 49.1102Z" fill="white"/>
<path d="M426.85 59.461H426.802L426.61 58.7995C426.327 57.6625 425.62 56.6799 424.637 56.0564C423.415 55.4402 422.053 55.1618 420.69 55.2496H414.858V70.8127H422.631C424.322 70.8646 425.99 70.4098 427.425 69.5057C428.918 68.4389 430.121 67.0101 430.924 65.3507L431.627 64.0679H432.003C431.811 65.2055 431.603 66.4883 431.364 67.8033C431.124 69.1184 430.924 70.3932 430.732 71.4985H430.685L430.597 72.16H405.918V71.5872L406.477 71.5388C406.93 71.5572 407.381 71.4783 407.801 71.3072C408.221 71.1361 408.601 70.8768 408.914 70.5465C409.483 69.7196 409.749 68.7181 409.665 67.7146V43.672C409.75 42.6659 409.484 41.6614 408.914 40.8321C408.598 40.5058 408.218 40.2492 407.798 40.0784C407.379 39.9076 406.929 39.8263 406.477 39.8397L405.918 39.7913V39.2266H430.621V47.2945H430.245L429.822 46.0359C429.374 44.4044 428.429 42.9564 427.121 41.8971C425.774 40.9769 424.168 40.5213 422.544 40.5981H414.93V53.9748H420.762C422.11 54.0453 423.455 53.788 424.685 53.2245C425.626 52.697 426.338 51.8339 426.682 50.8041L426.874 50.2313H427.297V59.461H426.85Z" fill="white"/>
<path d="M106.959 33.829L122.307 31.7394L107.958 21.7674L87.274 28.6333L97.3484 42.252L64.8563 8.96352L0 0L48.4385 35.9832L27.4908 23.0421L13.2781 21.9691L59.919 46.0197H62.9229L47.3041 94L67.1253 67.5854L57.1867 70.6835L101.886 49.1178L107.095 25.6078L106.959 33.829Z" fill="#33B9EA"/>
</g>
<defs>
<clipPath id="clip0_699_147">
<rect width="432" height="94" fill="white"/>
</clipPath>
</defs>
</svg>
