<svg width="850" height="184" viewBox="0 0 850 184" fill="none" xmlns="http://www.w3.org/2000/svg">
<g clip-path="url(#clip0_140_299)">
<path d="M524.104 159.885C526.082 159.844 528.038 160.316 529.781 161.257C531.524 162.198 532.996 163.575 534.054 165.255L531.319 167.403C530.593 166.162 529.554 165.136 528.306 164.429C527.058 163.721 525.646 163.358 524.214 163.375C521.938 163.375 519.754 164.284 518.145 165.901C516.535 167.518 515.631 169.711 515.631 171.998C515.631 174.285 516.535 176.478 518.145 178.096C519.754 179.713 521.938 180.621 524.214 180.621C525.647 180.642 527.06 180.28 528.308 179.572C529.557 178.865 530.596 177.837 531.319 176.594L534.133 178.679C533.086 180.37 531.617 181.757 529.871 182.702C528.126 183.647 526.164 184.116 524.182 184.064C522.57 184.123 520.962 183.854 519.455 183.274C517.948 182.695 516.572 181.816 515.411 180.691C514.249 179.565 513.326 178.216 512.695 176.724C512.064 175.232 511.738 173.627 511.738 172.006C511.738 170.385 512.064 168.78 512.695 167.288C513.326 165.796 514.249 164.447 515.411 163.322C516.572 162.196 517.948 161.317 519.455 160.738C520.962 160.158 522.57 159.89 524.182 159.949L524.104 159.885Z" fill="#33B9EA"/>
<path d="M585.928 179.72H575.475L573.903 183.605H569.926L580.159 159.916H581.432L591.682 183.605H587.657L585.928 179.72ZM580.725 166.849L576.811 176.498H584.592L580.725 166.849Z" fill="#33B9EA"/>
<path d="M629.109 160.264H637.598C642.314 160.264 645.458 163.201 645.458 167.418C645.458 171.634 642.314 174.588 637.598 174.588H632.882V183.605H629.157L629.109 160.264ZM637.519 171.319C638.05 171.367 638.585 171.304 639.09 171.133C639.595 170.962 640.059 170.687 640.453 170.326C640.846 169.965 641.161 169.526 641.376 169.036C641.591 168.546 641.702 168.016 641.702 167.481C641.702 166.945 641.591 166.416 641.376 165.926C641.161 165.436 640.846 164.997 640.453 164.636C640.059 164.275 639.595 164 639.09 163.829C638.585 163.658 638.05 163.595 637.519 163.643H632.803V171.319H637.519Z" fill="#33B9EA"/>
<path d="M683.438 160.264H687.179V183.605H683.438V160.264Z" fill="#33B9EA"/>
<path d="M732.278 163.627H724.418V160.264H743.816V163.627H735.956V183.605H732.215L732.278 163.627Z" fill="#33B9EA"/>
<path d="M792.452 179.72H781.999L780.348 183.605H776.371L786.62 159.916H787.878L798.127 183.605H794.103L792.452 179.72ZM787.249 166.849L783.335 176.498H791.116L787.249 166.849Z" fill="#33B9EA"/>
<path d="M835.633 160.264H839.421V180.241H850.063V183.605H835.696L835.633 160.264Z" fill="#33B9EA"/>
<path d="M477.89 170.561H227.227V173.324H477.89V170.561Z" fill="#33B9EA"/>
<path d="M227.227 76.6895L256.795 76.7842C261.757 76.725 266.694 77.5044 271.398 79.0899C275.549 80.5007 279.384 82.7168 282.685 85.6123C285.819 88.4358 288.303 91.912 289.963 95.7985C291.714 99.9643 292.591 104.448 292.541 108.97C292.597 113.472 291.813 117.944 290.23 122.156C288.811 125.966 286.616 129.435 283.785 132.343C280.949 135.202 277.541 137.425 273.788 138.865C269.629 140.461 265.207 141.248 260.756 141.187H227.227V140.081H228.327C229.218 140.107 230.104 139.947 230.93 139.609C231.755 139.272 232.501 138.766 233.121 138.123C234.234 136.501 234.756 134.543 234.599 132.58V85.3912C234.756 83.4228 234.234 81.46 233.121 79.8322C232.498 79.1942 231.751 78.6924 230.926 78.3582C230.101 78.0239 229.216 77.8644 228.327 77.8897L227.227 77.7949V76.6895ZM244.817 138.518H260.788C263.864 138.564 266.902 137.831 269.622 136.386C272.298 134.912 274.616 132.862 276.413 130.384C278.424 127.565 279.91 124.403 280.799 121.051C281.866 117.104 282.395 113.029 282.371 108.938C282.417 104.831 281.79 100.744 280.516 96.8409C279.403 93.4154 277.63 90.2438 275.297 87.5074C273.077 84.9353 270.325 82.8818 267.233 81.4904C263.942 80.0512 260.384 79.3299 256.795 79.3742H244.88L244.817 138.518Z" fill="#203468"/>
<path d="M301.813 108.969C301.782 104.665 302.5 100.39 303.936 96.3348C305.283 92.4614 307.425 88.9156 310.223 85.9274C313.188 82.8395 316.765 80.4127 320.724 78.805C325.352 76.9585 330.302 76.0618 335.28 76.1676C340.244 76.0552 345.179 76.9523 349.789 78.805C353.734 80.4131 357.296 82.8402 360.243 85.9274C363.103 88.9 365.305 92.4467 366.704 96.3348C369.533 104.485 369.533 113.358 366.704 121.508C365.329 125.391 363.16 128.942 360.337 131.931C357.387 135.014 353.825 137.44 349.884 139.054C345.271 140.899 340.338 141.795 335.375 141.691C330.397 141.789 325.449 140.893 320.818 139.054C316.863 137.44 313.286 135.014 310.318 131.931C307.522 128.935 305.38 125.385 304.03 121.508C302.573 117.489 301.823 113.246 301.813 108.969ZM313.242 108.969C313.218 112.871 313.683 116.76 314.625 120.545C315.441 123.951 316.84 127.19 318.759 130.115C320.538 132.796 322.904 135.033 325.676 136.653C328.598 138.293 331.902 139.121 335.249 139.054C338.586 139.126 341.881 138.297 344.791 136.653C347.534 135.029 349.869 132.792 351.613 130.115C353.504 127.18 354.886 123.944 355.7 120.545C357.544 112.944 357.544 105.009 355.7 97.4087C354.889 94.0035 353.507 90.7619 351.613 87.8226C349.873 85.1467 347.537 82.9138 344.791 81.3002C341.887 79.6773 338.602 78.8699 335.28 78.9629C331.932 78.8943 328.626 79.7286 325.707 81.3792C322.933 82.9894 320.566 85.2215 318.791 87.9015C316.869 90.8313 315.47 94.0752 314.656 97.4877C313.72 101.242 313.255 105.099 313.273 108.969H313.242Z" fill="#203468"/>
<path d="M404.288 77.7949L404.477 77.8897L402.622 77.9844C398.142 78.174 396.617 80.2428 398.016 84.191L417.744 129.074L432.285 88.4392C433.511 84.9227 433.663 82.3327 432.741 80.6692C431.813 78.9952 429.691 78.1108 426.453 77.9844L424.786 77.8897V76.7842H446.432V77.8897L445.332 77.9844C441.339 78.174 438.447 80.3218 436.67 84.4594L415.339 142.671H412.667L386.965 85.3912C386.161 83.3003 384.923 81.4053 383.334 79.8322C382.028 78.6647 380.364 77.9795 378.618 77.8897L377.785 77.7949V76.6895H404.225L404.288 77.7949Z" fill="#203468"/>
<path d="M496.736 116.391H496.642L496.28 115.096C495.717 112.873 494.327 110.952 492.398 109.727C489.987 108.522 487.303 107.977 484.616 108.147H473.157V138.611H488.499C491.826 138.719 495.11 137.828 497.931 136.053C500.836 133.96 503.167 131.162 504.706 127.92L506.089 125.409H506.828C506.451 127.635 506.042 130.147 505.586 132.721C505.13 135.295 504.706 137.79 504.344 139.954H504.25L504.061 141.249H455.504V140.127L456.62 140.033C457.497 140.058 458.37 139.898 459.183 139.563C459.995 139.228 460.728 138.727 461.336 138.09C462.456 136.472 462.978 134.511 462.814 132.547V85.4849C462.981 83.5156 462.458 81.5493 461.336 79.9259C460.723 79.2963 459.989 78.7992 459.178 78.4652C458.367 78.1311 457.496 77.9672 456.62 77.9834L455.504 77.8887V76.7832H504.061V92.5758H503.323L502.489 90.0806C501.608 86.8869 499.75 84.0525 497.176 81.979C494.525 80.1778 491.366 79.2859 488.169 79.4364H473.157V105.652H484.616C487.269 105.792 489.917 105.288 492.335 104.183C494.186 103.151 495.587 101.461 496.265 99.4456L496.642 98.3244H497.475V116.391H496.736Z" fill="#203468"/>
<path d="M586.889 140.081V141.202H561.91V140.081H563.026C563.904 140.098 564.776 139.933 565.588 139.596C566.399 139.259 567.133 138.758 567.742 138.123C568.862 136.504 569.385 134.544 569.22 132.58V108.527H534.008V132.501C533.847 134.462 534.363 136.42 535.47 138.044C536.09 138.687 536.836 139.193 537.662 139.53C538.487 139.868 539.374 140.028 540.265 140.002H541.365V141.123H516.402V140.081H517.518C518.396 140.098 519.268 139.933 520.08 139.596C520.891 139.259 521.625 138.758 522.234 138.123C523.354 136.504 523.877 134.544 523.712 132.58V85.3912C523.877 83.4221 523.354 81.4567 522.234 79.8322C521.622 79.2026 520.887 78.7054 520.076 78.3714C519.265 78.0374 518.395 77.8734 517.518 77.8897L516.402 77.7949V76.6895H541.365V77.7949L540.265 77.8897C539.374 77.8636 538.487 78.0242 537.662 78.3614C536.836 78.6986 536.09 79.2049 535.47 79.848C534.363 81.4778 533.847 83.4404 534.008 85.407V106.127H569.283V85.407C569.444 83.4332 568.922 81.4638 567.805 79.8322C567.192 79.2026 566.458 78.7054 565.647 78.3714C564.836 78.0374 563.966 77.8734 563.089 77.8897L561.973 77.7949V76.6895H586.951V77.7949L585.835 77.8897C584.946 77.8663 584.062 78.0267 583.237 78.3608C582.413 78.695 581.665 79.1958 581.041 79.8322C579.934 81.462 579.418 83.4246 579.579 85.3912V132.501C579.417 134.462 579.934 136.42 581.041 138.044C581.662 138.685 582.409 139.191 583.234 139.528C584.059 139.865 584.945 140.026 585.835 140.002L586.889 140.081Z" fill="#203468"/>
<path d="M596.099 108.97C596.07 104.668 596.782 100.393 598.205 96.3357C599.576 92.4559 601.745 88.9097 604.571 85.9283C607.532 82.8367 611.111 80.4094 615.072 78.8059C624.444 75.2887 634.765 75.2887 644.137 78.8059C648.08 80.4182 651.641 82.8448 654.591 85.9283C657.417 88.9097 659.586 92.4559 660.957 96.3357C663.766 104.49 663.766 113.355 660.957 121.509C659.583 125.392 657.414 128.943 654.591 131.932C651.637 135.011 648.077 137.437 644.137 139.055C634.765 142.572 624.444 142.572 615.072 139.055C611.114 137.445 607.537 135.019 604.571 131.932C601.748 128.943 599.58 125.392 598.205 121.509C596.793 117.481 596.08 113.24 596.099 108.97ZM607.511 108.97C607.496 112.871 607.96 116.759 608.894 120.546C609.726 123.957 611.135 127.2 613.06 130.132C614.834 132.817 617.201 135.054 619.976 136.67C622.899 138.309 626.203 139.138 629.55 139.071C632.887 139.142 636.182 138.313 639.091 136.67C641.83 135.045 644.16 132.808 645.898 130.132C647.8 127.201 649.188 123.964 650.001 120.562C651.845 112.961 651.845 105.026 650.001 97.4254C649.191 94.017 647.803 90.7742 645.898 87.8392C644.165 85.163 641.834 82.9297 639.091 81.3169C636.175 79.6802 632.873 78.867 629.534 78.9638C626.185 78.8936 622.879 79.7281 619.961 81.38C617.183 82.9856 614.815 85.2186 613.044 87.9024C611.123 90.8348 609.719 94.0775 608.894 97.4885C607.966 101.244 607.501 105.1 607.511 108.97Z" fill="#203468"/>
<path d="M736.489 76.6898L736.583 77.7953L735.294 77.89C734.297 77.8587 733.304 78.0411 732.383 78.4251C731.461 78.809 730.632 79.3857 729.949 80.1168C728.702 81.9733 728.119 84.201 728.299 86.4338V122.867C728.329 125.507 727.876 128.13 726.963 130.606C726.075 132.9 724.632 134.935 722.765 136.528C720.585 138.301 718.057 139.593 715.346 140.318C711.76 141.286 708.055 141.738 704.342 141.661C700.473 141.752 696.615 141.219 692.914 140.081C690.064 139.199 687.44 137.701 685.227 135.691C683.227 133.803 681.72 131.449 680.842 128.837C679.899 125.959 679.437 122.944 679.474 119.914V85.3915C679.631 83.4231 679.109 81.4604 677.996 79.8325C677.373 79.1946 676.626 78.6928 675.801 78.3585C674.976 78.0242 674.091 77.8648 673.202 77.89L672.102 77.7953V76.6898H697.064V77.7953L695.964 77.89C695.074 77.8638 694.189 78.0229 693.364 78.3572C692.539 78.6915 691.792 79.1938 691.169 79.8325C690.049 81.457 689.527 83.4224 689.692 85.3915V121.951C689.488 126.191 690.81 130.362 693.417 133.701C695.917 136.67 700.035 138.139 705.82 138.139C708.825 138.211 711.822 137.806 714.701 136.939C716.898 136.272 718.925 135.135 720.643 133.606C722.172 132.203 723.328 130.439 724.007 128.474C724.742 126.314 725.104 124.044 725.076 121.762V86.4023C725.257 84.1531 724.632 81.9131 723.316 80.0852C722.583 79.3461 721.707 78.7669 720.741 78.3837C719.775 78.0006 718.741 77.8218 717.704 77.8584L716.32 77.7637V76.6582L736.489 76.6898Z" fill="#203468"/>
<path d="M785.599 96.1303L784.766 96.0355C784.341 94.8669 783.869 93.5719 783.335 92.1979C782.801 90.824 782.313 89.529 781.763 88.3445C780.937 86.0649 779.579 84.0177 777.802 82.3749C776.19 80.8114 774.185 79.7193 772.001 79.2164C772.001 79.2164 771.765 79.09 771.31 79.0269L769.738 78.8373L767.301 78.6636C763.575 78.4796 759.919 79.7211 757.068 82.138C755.787 83.2914 754.777 84.7149 754.108 86.3067C753.44 87.8984 753.13 89.619 753.201 91.3451C753.241 92.7033 753.709 94.0136 754.537 95.088C755.582 96.4964 756.839 97.7325 758.262 98.7519C760.094 100.047 762.053 101.148 764.11 102.037C766.617 103.138 769.196 104.067 771.828 104.816C774.388 105.503 776.85 106.517 779.154 107.833C781.197 108.999 783.07 110.445 784.718 112.128C786.219 113.669 787.452 115.452 788.365 117.403C789.217 119.249 789.657 121.259 789.654 123.294C789.694 125.891 789.157 128.464 788.082 130.827C787.056 133.064 785.547 135.044 783.665 136.623C781.632 138.286 779.3 139.54 776.796 140.318C773.921 141.215 770.924 141.652 767.914 141.613C765.824 141.613 763.717 141.503 761.626 141.297C759.536 141.092 757.492 140.76 755.559 140.365C753.721 140.028 751.909 139.564 750.135 138.976C748.639 138.466 747.188 137.832 745.797 137.081V121.604H746.677C746.866 122.157 747.07 122.772 747.322 123.452C747.573 124.131 747.778 124.747 747.966 125.315C749.302 128.948 751.568 132.162 754.537 134.633C757.29 136.99 760.698 138.44 764.299 138.786L765.965 138.928H767.16H767.804C771.561 139.113 775.267 137.998 778.305 135.77C779.578 134.793 780.601 133.526 781.289 132.073C781.978 130.62 782.313 129.024 782.266 127.416C782.242 125.909 781.778 124.442 780.93 123.199C779.903 121.67 778.628 120.324 777.157 119.219C775.326 117.833 773.349 116.652 771.262 115.697C768.804 114.557 766.26 113.612 763.654 112.87C761.141 112.176 758.715 111.196 756.423 109.949C754.388 108.859 752.515 107.487 750.859 105.874C749.387 104.449 748.184 102.769 747.306 100.915C746.494 99.2033 746.07 97.3318 746.064 95.4354C746.045 92.723 746.58 90.0355 747.636 87.5391C748.643 85.1903 750.138 83.0849 752.022 81.3642C754.006 79.5904 756.327 78.2368 758.844 77.3844C761.706 76.4234 764.708 75.9535 767.726 75.9947C770.911 76.0134 774.081 76.4433 777.157 77.2739C780.127 78.0197 782.979 79.1785 785.63 80.7167L785.599 96.1303Z" fill="#203468"/>
<path d="M839.861 116.391H839.767L839.389 115.096C838.832 112.871 837.441 110.947 835.507 109.727C833.102 108.521 830.423 107.976 827.741 108.147H816.266V138.611H831.561C834.887 138.713 838.169 137.823 840.993 136.053C843.93 133.965 846.298 131.168 847.878 127.92L849.261 125.409H850C849.623 127.635 849.214 130.147 848.742 132.721C848.271 135.295 847.878 137.79 847.501 139.954H847.406L847.233 141.249H798.676V140.127L799.776 140.033C800.667 140.069 801.555 139.914 802.381 139.579C803.208 139.244 803.954 138.737 804.571 138.09C805.691 136.472 806.213 134.511 806.048 132.547V85.4849C806.216 83.5156 805.693 81.5493 804.571 79.9259C803.948 79.2872 803.201 78.7849 802.376 78.4506C801.551 78.1163 800.665 77.9572 799.776 77.9834L798.676 77.8887V76.7832H847.28V92.5758H846.542L845.709 90.1122C844.827 86.9185 842.969 84.0841 840.395 82.0106C837.744 80.2094 834.585 79.3175 831.388 79.468H816.407V105.652H827.883C830.535 105.79 833.182 105.286 835.601 104.183C837.452 103.151 838.854 101.461 839.531 99.4456L839.908 98.3244H840.741V116.391H839.861Z" fill="#203468"/>
<path d="M210.453 66.2185L240.65 62.1282L212.417 42.6085L171.72 56.0481L191.542 82.706L127.611 17.5456L0 0L95.3073 70.4352L54.0908 45.1038L26.1258 43.0033L117.896 90.0812H123.807L93.0751 184L132.075 132.295L112.52 138.359L200.471 96.1456L210.72 50.1258L210.453 66.2185Z" fill="#33B9EA"/>
</g>
<defs>
<clipPath id="clip0_140_299">
<rect width="850" height="184" fill="white"/>
</clipPath>
</defs>
</svg>
